<?xml version="1.0" ?><!DOCTYPE svg  PUBLIC '-//W3C//DTD SVG 1.1//EN'  'http://www.w3.org/Graphics/SVG/1.1/DTD/svg11.dtd'><svg height="485.000" viewBox="-244.000 -265.000 489.000 485.000" width="489.000" xmlns="http://www.w3.org/2000/svg"><line fill="none" stroke="none" stroke-linecap="round" stroke-width="2.0" x1="0.0" x2="0.0" y1="0.0" y2="0.0"/><polygon fill="none" fill-rule="evenodd" points="0.0,0.0 0.0,0.0 0.0,0.0" stroke-linejoin="round"/><line fill="none" stroke="none" stroke-linecap="round" stroke-width="2.0" x1="0.0" x2="0.0" y1="0.0" y2="0.0"/><polyline fill="none" points="-150.0,150.0 150.0,150.0 192.694451482,-146.946432564 -95.1534406024,-231.466199617 -219.777944503,41.4233989896 32.5981153464,203.615644226 229.05633553,-23.10922808 32.5981153464,-249.834100386 -219.777944503,-87.6418551495 -95.1534406024,185.247743457 192.694451482,100.727976404 150.0,-196.21845616 -150.0,-196.21845616 -192.694451482,100.727976404 95.1534406024,185.247743457 219.777944503,-87.6418551495 -32.5981153464,-249.834100386 -229.05633553,-23.10922808 -32.5981153464,203.615644226 219.777944503,41.4233989896 95.1534406024,-231.466199617 -192.694451482,-146.946432564 -150.0,150.0" stroke="#00f" stroke-linecap="round" stroke-linejoin="round" stroke-width="5.0"/><polyline fill="none" points="100.0,90.0 128.462967655,-107.964288376 -63.4356270682,-164.310799744 -146.518629669,17.6155993264 21.7320768976,125.743762818 152.704223687,-25.4061520533 21.7320768976,-176.556066924 -146.518629669,-68.427903433 -63.4356270682,113.498495638 128.462967655,57.1519842696 100.0,-140.812304107 -100.0,-140.812304107 -128.462967655,57.1519842696 63.4356270682,113.498495638 146.518629669,-68.427903433 -21.7320768976,-176.556066924 -152.704223687,-25.4061520533 -21.7320768976,125.743762818 146.518629669,17.6155993264 63.4356270682,-164.310799744 -128.462967655,-107.964288376 -100.0,90.0 100.0,90.0" stroke="#f00" stroke-linecap="round" stroke-linejoin="round" stroke-width="5.0"/><polyline fill="none" points="50.0,30.0 64.2314838274,-68.9821441881 -31.7178135341,-97.1553998723 -73.2593148343,-6.19220033682 10.8660384488,47.8718814088 76.3521118434,-27.7030760266 10.8660384489,-103.278033462 -73.2593148343,-49.2139517166 -31.7178135341,41.7492478189 64.2314838273,13.5759921348 50.0,-85.4061520533 -50.0,-85.4061520533 -64.2314838273,13.5759921348 31.7178135341,41.7492478189 73.2593148343,-49.2139517165 -10.8660384488,-103.278033462 -76.3521118433,-27.7030760267 -10.8660384488,47.8718814088 73.2593148343,-6.19220033678 31.7178135342,-97.1553998722 -64.2314838273,-68.9821441881 -50.0,30.0 50.0,30.0" stroke="#fff" stroke-linecap="round" stroke-linejoin="round" stroke-width="5.0"/><line fill="none" stroke="none" stroke-linecap="round" stroke-width="5.0" x1="0.0" x2="0.0" y1="0.0" y2="0.0"/><polygon fill="#fff" fill-rule="evenodd" points="50.0,30.0 43.7700592461,38.1968187856 49.0037961321,36.9287500932 53.6682736649,39.6199671683" stroke="#fff" stroke-linejoin="round"/></svg>
