<?xml version="1.0" ?><!DOCTYPE svg  PUBLIC '-//W3C//DTD SVG 1.1//EN'  'http://www.w3.org/Graphics/SVG/1.1/DTD/svg11.dtd'><svg height="233.000" viewBox="-103.000 -116.000 207.000 233.000" width="207.000" xmlns="http://www.w3.org/2000/svg"><line fill="none" stroke="none" stroke-linecap="round" stroke-width="2.0" x1="0.0" x2="0.0" y1="0.0" y2="0.0"/><polygon fill="none" fill-rule="evenodd" points="0.0,0.0 0.0,0.0 0.0,0.0" stroke-linejoin="round"/><line fill="none" stroke="none" stroke-linecap="round" stroke-width="2.0" x1="0.0" x2="0.0" y1="0.0" y2="0.0"/><polyline fill="none" points="0.0,-0.0 3.67394039744e-15,60.0 34.6410161514,80.0 7.1054273576e-15,60.0 7.1054273576e-15,100.0 7.1054273576e-15,60.0 -34.6410161514,80.0 7.1054273576e-15,60.0 7.1054273576e-15,-0.0 -51.9615242271,30.0 -51.9615242271,70.0 -51.9615242271,30.0 -86.6025403784,50.0 -51.9615242271,30.0 -86.6025403784,10.0 -51.9615242271,30.0 7.1054273576e-15,-1.7763568394e-14 -51.9615242271,-30.0 -86.6025403784,-10.0 -51.9615242271,-30.0 -86.6025403784,-50.0 -51.9615242271,-30.0 -51.9615242271,-70.0 -51.9615242271,-30.0 7.1054273576e-15,-1.7763568394e-14 -1.95399252334e-14,-60.0 -34.6410161514,-80.0 -2.13162820728e-14,-60.0 -3.90798504668e-14,-100.0 -2.13162820728e-14,-60.0 34.6410161514,-80.0 -2.13162820728e-14,-60.0 1.99840144433e-15,-1.42108547152e-14 51.9615242271,-30.0 51.9615242271,-70.0 51.9615242271,-30.0 86.6025403784,-50.0 51.9615242271,-30.0 86.6025403784,-10.0 51.9615242271,-30.0 7.1054273576e-15,-7.1054273576e-15 51.9615242271,30.0 86.6025403784,10.0" stroke="#00bfff" stroke-linecap="round" stroke-linejoin="round" stroke-width="6.0"/><polyline fill="none" points="86.6025403784,10.0 51.9615242271,30.0 86.6025403784,50.0 51.9615242271,30.0 51.9615242271,70.0 51.9615242271,30.0 -2.13162820728e-14,3.5527136788e-15" stroke="#00bfff" stroke-linecap="round" stroke-linejoin="round" stroke-width="6.0"/><line fill="none" stroke="none" stroke-linecap="round" stroke-width="6.0" x1="0.0" x2="0.0" y1="0.0" y2="0.0"/><polygon fill="#00bfff" fill-rule="evenodd" points="-2.13162820728e-14,3.5527136788e-15 -5.29422863406,-8.83012701892 -6.06217782649,-3.5 -10.2942286341,-0.169872981078" stroke="#00bfff" stroke-linejoin="round"/><polyline fill="none" points="0.0,-0.0 1.83697019872e-15,30.0 -25.9807621135,45.0 -51.9615242271,30.0 -51.9615242271,7.1054273576e-15 -25.9807621135,-15.0 -1.06581410364e-14,-2.48689957516e-14 25.9807621135,15.0 25.9807621135,45.0 4.26325641456e-14,60.0 -25.9807621135,45.0 -25.9807621135,15.0 -3.5527136788e-14,-2.30926389122e-14 25.9807621135,-15.0 51.9615242271,-9.94759830064e-14 51.9615242271,30.0 25.9807621135,45.0 2.13162820728e-14,30.0 -4.19664303308e-14,-7.1054273576e-15 -1.05249142734e-13,-30.0 25.9807621135,-45.0 51.9615242271,-30.0 51.9615242271,-1.24344978758e-13 25.9807621135,15.0 -4.61852778244e-14,1.06581410364e-14 -25.9807621135,-15.0 -25.9807621135,-45.0 -2.20268248086e-13,-60.0 25.9807621135,-45.0 25.9807621135,-15.0 -2.84217094304e-14,8.881784197e-15 -25.9807621135,15.0 -51.9615242271,1.88293824976e-13 -51.9615242271,-30.0 -25.9807621135,-45.0 -1.38555833473e-13,-30.0 -1.36557432029e-14,-2.13162820728e-14" stroke="#00bfff" stroke-linecap="round" stroke-linejoin="round" stroke-width="6.0"/><line fill="none" stroke="none" stroke-linecap="round" stroke-width="6.0" x1="0.0" x2="0.0" y1="0.0" y2="0.0"/><polygon fill="#00bfff" fill-rule="evenodd" points="-1.36557432029e-14,-2.13162820728e-14 5.0,-9.0 -4.27990975993e-14,-7.0 -5.0,-9.0" stroke="#00bfff" stroke-linejoin="round"/></svg>