<?xml version="1.0" ?><!DOCTYPE svg  PUBLIC '-//W3C//DTD SVG 1.1//EN'  'http://www.w3.org/Graphics/SVG/1.1/DTD/svg11.dtd'><svg height="447.000" viewBox="-76.000 -349.000 453.000 447.000" width="453.000" xmlns="http://www.w3.org/2000/svg"><line fill="none" stroke="#f00" stroke-linecap="round" stroke-width="20.0" x1="0.0" x2="300.0" y1="0.0" y2="0.0"/><line fill="none" stroke="#00f" stroke-linecap="round" stroke-width="20.0" x1="300.0" x2="247.9055467" y1="0.0" y2="-295.442325904"/><line fill="none" stroke="#0f0" stroke-linecap="round" stroke-width="20.0" x1="247.9055467" x2="-34.0022395359" y1="-295.442325904" y2="-192.836282906"/><line fill="none" stroke="#ff0" stroke-linecap="round" stroke-width="20.0" x1="-34.0022395359" x2="115.997760464" y1="-192.836282906" y2="66.9713382294"/><line fill="none" stroke="#a020f0" stroke-linecap="round" stroke-width="20.0" x1="115.997760464" x2="345.8110934" y1="66.9713382294" y2="-125.864944677"/><line fill="none" stroke="#ffa500" stroke-linecap="round" stroke-width="20.0" x1="345.8110934" x2="115.997760464" y1="-125.864944677" y2="-318.701227583"/><line fill="none" stroke="#f00" stroke-linecap="round" stroke-width="20.0" x1="115.997760464" x2="-34.0022395359" y1="-318.701227583" y2="-58.8936064472"/><line fill="none" stroke="#00f" stroke-linecap="round" stroke-width="20.0" x1="-34.0022395359" x2="247.9055467" y1="-58.8936064472" y2="43.7124365505"/><line fill="none" stroke="#0f0" stroke-linecap="round" stroke-width="20.0" x1="247.9055467" x2="300.0" y1="43.7124365505" y2="-251.729889353"/><line fill="none" stroke="#ff0" stroke-linecap="round" stroke-width="20.0" x1="300.0" x2="5.68434188608e-14" y1="-251.729889353" y2="-251.729889353"/><line fill="none" stroke="#a020f0" stroke-linecap="round" stroke-width="20.0" x1="5.68434188608e-14" x2="52.0944533001" y1="-251.729889353" y2="43.7124365505"/><line fill="none" stroke="#ffa500" stroke-linecap="round" stroke-width="20.0" x1="52.0944533001" x2="334.002239536" y1="43.7124365505" y2="-58.8936064472"/><line fill="none" stroke="#f00" stroke-linecap="round" stroke-width="20.0" x1="334.002239536" x2="184.002239536" y1="-58.8936064472" y2="-318.701227583"/><line fill="none" stroke="#00f" stroke-linecap="round" stroke-width="20.0" x1="184.002239536" x2="-45.8110933998" y1="-318.701227583" y2="-125.864944677"/><line fill="none" stroke="#0f0" stroke-linecap="round" stroke-width="20.0" x1="-45.8110933998" x2="184.002239536" y1="-125.864944677" y2="66.9713382294"/><line fill="none" stroke="#ff0" stroke-linecap="round" stroke-width="20.0" x1="184.002239536" x2="334.002239536" y1="66.9713382294" y2="-192.836282906"/><line fill="none" stroke="#a020f0" stroke-linecap="round" stroke-width="20.0" x1="334.002239536" x2="52.0944533001" y1="-192.836282906" y2="-295.442325904"/><line fill="none" stroke="#ffa500" stroke-linecap="round" stroke-width="20.0" x1="52.0944533001" x2="6.39488462184e-14" y1="-295.442325904" y2="-1.13686837722e-13"/><line fill="none" stroke="#f00" stroke-linecap="round" stroke-width="20.0" x1="6.39488462184e-14" x2="300.0" y1="-1.13686837722e-13" y2="6.11732886568e-14"/><line fill="none" stroke="#00f" stroke-linecap="round" stroke-width="20.0" x1="300.0" x2="247.9055467" y1="6.11732886568e-14" y2="-295.442325904"/><line fill="none" stroke="#0f0" stroke-linecap="round" stroke-width="20.0" x1="247.9055467" x2="-34.0022395359" y1="-295.442325904" y2="-192.836282906"/><line fill="none" stroke="#ff0" stroke-linecap="round" stroke-width="20.0" x1="-34.0022395359" x2="115.997760464" y1="-192.836282906" y2="66.9713382294"/><line fill="none" stroke="#a020f0" stroke-linecap="round" stroke-width="20.0" x1="115.997760464" x2="345.8110934" y1="66.9713382294" y2="-125.864944677"/><line fill="none" stroke="#ffa500" stroke-linecap="round" stroke-width="20.0" x1="345.8110934" x2="115.997760464" y1="-125.864944677" y2="-318.701227583"/><line fill="none" stroke="#f00" stroke-linecap="round" stroke-width="20.0" x1="115.997760464" x2="-34.0022395359" y1="-318.701227583" y2="-58.8936064472"/><line fill="none" stroke="#00f" stroke-linecap="round" stroke-width="20.0" x1="-34.0022395359" x2="247.9055467" y1="-58.8936064472" y2="43.7124365505"/><line fill="none" stroke="#0f0" stroke-linecap="round" stroke-width="20.0" x1="247.9055467" x2="300.0" y1="43.7124365505" y2="-251.729889353"/><line fill="none" stroke="#ff0" stroke-linecap="round" stroke-width="20.0" x1="300.0" x2="2.84217094304e-13" y1="-251.729889353" y2="-251.729889353"/><line fill="none" stroke="#a020f0" stroke-linecap="round" stroke-width="20.0" x1="2.84217094304e-13" x2="52.0944533001" y1="-251.729889353" y2="43.7124365505"/><line fill="none" stroke="#ffa500" stroke-linecap="round" stroke-width="20.0" x1="52.0944533001" x2="334.002239536" y1="43.7124365505" y2="-58.8936064472"/><line fill="none" stroke="#f00" stroke-linecap="round" stroke-width="20.0" x1="334.002239536" x2="184.002239536" y1="-58.8936064472" y2="-318.701227583"/><line fill="none" stroke="#00f" stroke-linecap="round" stroke-width="20.0" x1="184.002239536" x2="-45.8110933998" y1="-318.701227583" y2="-125.864944677"/><line fill="none" stroke="#0f0" stroke-linecap="round" stroke-width="20.0" x1="-45.8110933998" x2="184.002239536" y1="-125.864944677" y2="66.9713382294"/><line fill="none" stroke="#ff0" stroke-linecap="round" stroke-width="20.0" x1="184.002239536" x2="334.002239536" y1="66.9713382294" y2="-192.836282906"/><line fill="none" stroke="#a020f0" stroke-linecap="round" stroke-width="20.0" x1="334.002239536" x2="52.0944533001" y1="-192.836282906" y2="-295.442325904"/><line fill="none" stroke="#ffa500" stroke-linecap="round" stroke-width="20.0" x1="52.0944533001" x2="6.39488462184e-14" y1="-295.442325904" y2="-3.41060513165e-13"/><line fill="none" stroke="#f00" stroke-linecap="round" stroke-width="20.0" x1="6.39488462184e-14" x2="300.0" y1="-3.41060513165e-13" y2="1.08579811808e-13"/><line fill="none" stroke="#00f" stroke-linecap="round" stroke-width="20.0" x1="300.0" x2="247.9055467" y1="1.08579811808e-13" y2="-295.442325904"/><line fill="none" stroke="#0f0" stroke-linecap="round" stroke-width="20.0" x1="247.9055467" x2="-34.0022395359" y1="-295.442325904" y2="-192.836282906"/><line fill="none" stroke="#ff0" stroke-linecap="round" stroke-width="20.0" x1="-34.0022395359" x2="115.997760464" y1="-192.836282906" y2="66.9713382294"/><line fill="none" stroke="none" stroke-linecap="round" stroke-width="20.0" x1="0.0" x2="0.0" y1="0.0" y2="0.0"/><polygon fill="#ff0" fill-rule="evenodd" points="115.997760464,66.9713382294 105.889422428,68.926204501 110.635449362,71.4708514972 112.317298525,76.5866489321" stroke="#ff0" stroke-linejoin="round"/></svg>