<?xml version="1.0" ?><!DOCTYPE svg  PUBLIC '-//W3C//DTD SVG 1.1//EN'  'http://www.w3.org/Graphics/SVG/1.1/DTD/svg11.dtd'><svg height="162.000" viewBox="-43.000 -26.000 162.000 162.000" width="162.000" xmlns="http://www.w3.org/2000/svg"><line fill="none" stroke="none" stroke-linecap="round" stroke-width="2.0" x1="0.0" x2="0.0" y1="0.0" y2="0.0"/><polygon fill="none" fill-rule="evenodd" points="0.0,0.0 0.0,0.0 0.0,0.0" stroke-linejoin="round"/><line fill="none" stroke="none" stroke-linecap="round" stroke-width="2.0" x1="0.0" x2="0.0" y1="0.0" y2="0.0"/><polyline fill="none" points="0.0,0.0 75.0,0.0 102.400576827,69.8155311483 47.4216864402,120.828486481 -20.1509786524,88.2872060473 -14.5462216335,13.4969212587 57.1217388005,-8.60971682209 103.88347394,50.027644363 66.3834739399,114.979549647 -7.77883802698,103.801379684 -24.4679080737,30.68178627 37.5,-11.5672180848 99.4679080737,30.68178627 82.778838027,103.801379684 8.61652606009,114.979549647 -28.8834739399,50.027644363 17.8782611995,-8.60971682209 89.5462216335,13.4969212587 95.1509786524,88.2872060473 27.5783135598,120.828486481 -27.4005768275,69.8155311483 3.5527136788e-15,-2.84217094304e-14 75.0,7.21644966006e-16 102.400576827,69.8155311483 47.4216864402,120.828486481 -20.1509786524,88.2872060473" stroke="#fff" stroke-linecap="round" stroke-linejoin="round" stroke-width="4.0"/><line fill="none" stroke="none" stroke-linecap="round" stroke-width="4.0" x1="0.0" x2="0.0" y1="0.0" y2="0.0"/><polygon fill="#fff" fill-rule="evenodd" points="-20.1509786524,88.2872060473 -25.8095684806,96.888389754 -20.6740893075,95.2676326276 -15.8375305088,97.6356906899" stroke="#fff" stroke-linejoin="round"/><polyline fill="none" points="0.0,0.0 75.0,0.0 102.400576827,69.8155311483 47.4216864402,120.828486481 -20.1509786524,88.2872060473 -14.5462216335,13.4969212587 57.1217388005,-8.60971682209 103.88347394,50.027644363 66.3834739399,114.979549647 -7.77883802698,103.801379684 -24.4679080737,30.68178627 37.5,-11.5672180848 99.4679080737,30.68178627 82.778838027,103.801379684 8.61652606009,114.979549647 -28.8834739399,50.027644363 17.8782611995,-8.60971682209 89.5462216335,13.4969212587 95.1509786524,88.2872060473 27.5783135598,120.828486481 -27.4005768275,69.8155311483 3.5527136788e-15,-2.84217094304e-14 75.0,7.21644966006e-16 102.400576827,69.8155311483 47.4216864402,120.828486481 -20.1509786524,88.2872060473" stroke="#fff" stroke-linecap="round" stroke-linejoin="round" stroke-width="4.0"/><line fill="none" stroke="none" stroke-linecap="round" stroke-width="4.0" x1="0.0" x2="0.0" y1="0.0" y2="0.0"/><polygon fill="#fff" fill-rule="evenodd" points="-20.1509786524,88.2872060473 -25.8095684806,96.888389754 -20.6740893075,95.2676326276 -15.8375305088,97.6356906899" stroke="#fff" stroke-linejoin="round"/><polyline fill="none" points="0.0,0.0 75.0,0.0 102.400576827,69.8155311483 47.4216864402,120.828486481 -20.1509786524,88.2872060473 -14.5462216335,13.4969212587 57.1217388005,-8.60971682209 103.88347394,50.027644363 66.3834739399,114.979549647 -7.77883802698,103.801379684 -24.4679080737,30.68178627 37.5,-11.5672180848 99.4679080737,30.68178627 82.778838027,103.801379684 8.61652606009,114.979549647 -28.8834739399,50.027644363 17.8782611995,-8.60971682209 89.5462216335,13.4969212587 95.1509786524,88.2872060473 27.5783135598,120.828486481 -27.4005768275,69.8155311483 3.5527136788e-15,-2.84217094304e-14 75.0,7.21644966006e-16 102.400576827,69.8155311483 47.4216864402,120.828486481 -20.1509786524,88.2872060473" stroke="#fff" stroke-linecap="round" stroke-linejoin="round" stroke-width="4.0"/><line fill="none" stroke="none" stroke-linecap="round" stroke-width="4.0" x1="0.0" x2="0.0" y1="0.0" y2="0.0"/><polygon fill="#fff" fill-rule="evenodd" points="-20.1509786524,88.2872060473 -25.8095684806,96.888389754 -20.6740893075,95.2676326276 -15.8375305088,97.6356906899" stroke="#fff" stroke-linejoin="round"/></svg>