<?xml version="1.0" ?><!DOCTYPE svg  PUBLIC '-//W3C//DTD SVG 1.1//EN'  'http://www.w3.org/Graphics/SVG/1.1/DTD/svg11.dtd'><svg height="306.000" viewBox="-78.000 -43.000 307.000 306.000" width="307.000" xmlns="http://www.w3.org/2000/svg"><line fill="none" stroke="none" stroke-linecap="round" stroke-width="2.0" x1="0.0" x2="0.0" y1="0.0" y2="0.0"/><polygon fill="none" fill-rule="evenodd" points="0.0,0.0 0.0,0.0 0.0,0.0" stroke-linejoin="round"/><line fill="none" stroke="none" stroke-linecap="round" stroke-width="2.0" x1="0.0" x2="0.0" y1="0.0" y2="0.0"/><polyline fill="none" points="0.0,0.0 150.0,0.0 204.801153655,139.631062297 94.8433728805,241.656972962 -40.3019573049,176.574412095 -29.0924432669,26.9938425175 114.243477601,-17.2194336442 207.76694788,100.055288726 132.76694788,229.959099294 -15.557676054,207.602759367 -48.9358161474,61.36357254 75.0,-23.1344361696 198.935816147,61.36357254 165.557676054,207.602759367 17.2330521202,229.959099294 -57.7669478798,100.055288726 35.756522399,-17.2194336442 179.092443267,26.9938425175 190.301957305,176.574412095 55.1566271195,241.656972962 -54.801153655,139.631062297 7.1054273576e-15,-5.68434188608e-14 150.0,1.44328993201e-15 204.801153655,139.631062297 94.8433728805,241.656972962 -40.3019573049,176.574412095" stroke="#a020f0" stroke-linecap="round" stroke-linejoin="round" stroke-width="10.0"/><line fill="none" stroke="none" stroke-linecap="round" stroke-width="10.0" x1="0.0" x2="0.0" y1="0.0" y2="0.0"/><polygon fill="#a020f0" fill-rule="evenodd" points="-40.3019573049,176.574412095 -45.9605471331,185.175595801 -40.82506796,183.554838675 -35.9885091612,185.922896737" stroke="#a020f0" stroke-linejoin="round"/></svg>