<?xml version="1.0" ?><!DOCTYPE svg  PUBLIC '-//W3C//DTD SVG 1.1//EN'  'http://www.w3.org/Graphics/SVG/1.1/DTD/svg11.dtd'><svg height="86.000" viewBox="-67.000 -59.000 85.000 86.000" width="85.000" xmlns="http://www.w3.org/2000/svg"><polyline fill="none" points="0.0,-0.0 -19.1341716183,-46.1939766256 -54.4895106776,-10.8386375662 -8.29553405202,8.29553405202 -8.29553405202,-41.704465948 -54.4895106776,-22.5702943297 -19.1341716183,12.7850447296 3.5527136788e-15,-33.408931896 -50.0,-33.408931896 -30.8658283817,12.7850447296 4.48951067758,-22.5702943297 -41.704465948,-41.704465948 -41.704465948,8.29553405202 4.48951067758,-10.8386375662 -30.8658283817,-46.1939766256 -50.0,-3.5527136788e-14 0.0,-1.33226762955e-14 -19.1341716183,-46.1939766256 -54.4895106776,-10.8386375662 -8.29553405202,8.29553405202 -8.29553405202,-41.704465948 -54.4895106776,-22.5702943297 -19.1341716183,12.7850447296 7.1054273576e-15,-33.408931896 -50.0,-33.408931896 -30.8658283817,12.7850447296 4.48951067758,-22.5702943297 -41.704465948,-41.704465948 -41.704465948,8.29553405202 4.48951067758,-10.8386375662 -30.8658283817,-46.1939766256 -50.0,-3.5527136788e-14 0.0,-1.05471187339e-14 -19.1341716183,-46.1939766256 -54.4895106776,-10.8386375662 -8.29553405202,8.29553405202 -8.29553405202,-41.704465948 -54.4895106776,-22.5702943297 -19.1341716183,12.7850447296 7.1054273576e-15,-33.408931896 -50.0,-33.408931896 -30.8658283817,12.7850447296 4.48951067758,-22.5702943297" stroke="#a020f0" stroke-linecap="round" stroke-linejoin="round" stroke-width="3.0"/><polyline fill="none" points="4.48951067758,-22.5702943297 -41.704465948,-41.704465948 -41.704465948,8.29553405202 4.48951067758,-10.8386375662 -30.8658283817,-46.1939766256 -50.0,-3.5527136788e-14 0.0,-1.05471187339e-14 -19.1341716183,-46.1939766256 -54.4895106776,-10.8386375662 -8.29553405202,8.29553405202 -8.29553405202,-41.704465948 -54.4895106776,-22.5702943297 -19.1341716183,12.7850447296 7.1054273576e-15,-33.408931896 -50.0,-33.408931896 -30.8658283817,12.7850447296 4.48951067758,-22.5702943297 -41.704465948,-41.704465948 -41.704465948,8.29553405202" stroke="#a020f0" stroke-linecap="round" stroke-linejoin="round" stroke-width="3.0"/><line fill="none" stroke="none" stroke-linecap="round" stroke-width="3.0" x1="0.0" x2="0.0" y1="0.0" y2="0.0"/><polygon fill="#a020f0" fill-rule="evenodd" points="-41.704465948,8.29553405202 -36.704465948,-0.704465947983 -41.704465948,1.29553405202 -46.704465948,-0.704465947983" stroke="#a020f0" stroke-linejoin="round"/></svg>