<?xml version="1.0" ?><!DOCTYPE svg  PUBLIC '-//W3C//DTD SVG 1.1//EN'  'http://www.w3.org/Graphics/SVG/1.1/DTD/svg11.dtd'><svg height="484.000" viewBox="-95.000 -251.000 312.000 484.000" width="312.000" xmlns="http://www.w3.org/2000/svg"><line fill="none" stroke="#ffc0cb" stroke-linecap="round" stroke-width="10.0" x1="0.0" x2="150.0" y1="-0.0" y2="-0.0"/><line fill="none" stroke="#9370db" stroke-linecap="round" stroke-width="10.0" x1="150.0" x2="196.352549156" y1="-0.0" y2="-142.658477444"/><line fill="none" stroke="#ffd700" stroke-linecap="round" stroke-width="10.0" x1="196.352549156" x2="75.0" y1="-142.658477444" y2="-230.826265288"/><line fill="none" stroke="#00f" stroke-linecap="round" stroke-width="10.0" x1="75.0" x2="-46.3525491562" y1="-230.826265288" y2="-142.658477444"/><line fill="none" stroke="#90ee90" stroke-linecap="round" stroke-width="10.0" x1="-46.3525491562" x2="-2.84217094304e-14" y1="-142.658477444" y2="-0.0"/><polyline fill="none" points="0.0,-0.0 70.0,-0.0 126.631189606,41.1449676605 148.262379212,107.718923801 126.631189606,174.292879942 70.0,215.437847602 0.0,215.437847602 -56.6311896062,174.292879942 -78.2623792125,107.718923801 -56.6311896062,41.1449676605 -7.1054273576e-15,7.1054273576e-15" stroke="#ff6347" stroke-linecap="round" stroke-linejoin="round" stroke-width="7.0"/><line fill="none" stroke="none" stroke-linecap="round" stroke-width="7.0" x1="0.0" x2="0.0" y1="0.0" y2="0.0"/><polygon fill="#ff6347" fill-rule="evenodd" points="-7.1054273576e-15,7.1054273576e-15 -9.0,-5.0 -7.0,7.1054273576e-15 -9.0,5.0" stroke="#ff6347" stroke-linejoin="round"/><polyline fill="none" points="-2.84217094304e-14,-0.0 90.0,1.99840144433e-14 136.331352136,-77.1583165269 94.0334452634,-156.599408376 4.15277717379,-161.232496306 -46.0891578086,-86.5615650858 -7.93686264474,-5.04836140852 81.5861261606,4.20552833384 135.60541141,-67.7800036927 101.699900983,-151.149160835 12.7719903346,-164.999312739 -44.8813957483,-95.8900725954 -15.3125813763,-10.8860420049 72.7844302823,7.52364394645 133.919030783,-58.5260390325 108.765323646,-144.939527663 21.7328284152,-167.859928485 -42.7208685331,-105.044954556 -22.0489717413,-17.4511609226 63.688212531,9.91917398688 131.290086309,-49.4945168735 115.154818016,-138.036332515 30.9403043028,-169.784020305 -39.6304782891,-113.92916694 -28.0746263259,-24.6741262679 54.3938950779,11.3667252408 127.746445454,-40.7811735976 120.800653863,-130.512750978 40.2968164624,-170.751192347 -35.6429839217,-122.448534887 -33.3256716927,-32.4783728111 45.0,11.8509533047 123.325671693,-32.4783728111 125.642983922,-122.448534887 49.7031835376,-170.751192347 -30.800653863,-130.512750978 -37.7464454544,-40.7811735976 35.6061049221,11.3667252408 118.074626326,-24.6741262679 129.630478289,-113.92916694 59.0596956972,-169.784020305 -25.1548180164,-138.036332515 -41.2900863094,-49.4945168735" stroke="#0ff" stroke-linecap="round" stroke-linejoin="round" stroke-width="2.0"/><polyline fill="none" points="-41.2900863094,-49.4945168735 26.311787469,9.91917398688 112.048971741,-17.4511609226 132.720868533,-105.044954556 68.2671715848,-167.859928485 -18.7653236464,-144.939527663 -43.919030783,-58.5260390325 17.2155697177,7.52364394645 105.312581376,-10.8860420049 134.881395748,-95.8900725954 77.2280096654,-164.999312739 -11.6999009828,-151.149160835 -45.6054114099,-67.7800036927 8.41387383943,4.20552833384 97.9368626447,-5.04836140852 136.089157809,-86.5615650858 85.8472228262,-161.232496306 -4.03344526343,-156.599408376 -46.3313521359,-77.1583165269 -2.27373675443e-13,-1.56319401867e-13" stroke="#0ff" stroke-linecap="round" stroke-linejoin="round" stroke-width="2.0"/><line fill="none" stroke="none" stroke-linecap="round" stroke-width="2.0" x1="0.0" x2="0.0" y1="0.0" y2="0.0"/><polygon fill="#0ff" fill-rule="evenodd" points="-2.27373675443e-13,-1.56319401867e-13 -9.0,-5.0 -7.0,-1.71085368095e-13 -9.0,5.0" stroke="#0ff" stroke-linejoin="round"/></svg>