<?xml version="1.0" ?><!DOCTYPE svg  PUBLIC '-//W3C//DTD SVG 1.1//EN'  'http://www.w3.org/Graphics/SVG/1.1/DTD/svg11.dtd'><svg height="204.000" viewBox="-152.000 -178.000 205.000 204.000" width="205.000" xmlns="http://www.w3.org/2000/svg"><line fill="none" stroke="none" stroke-linecap="round" stroke-width="2.0" x1="0.0" x2="0.0" y1="0.0" y2="0.0"/><polygon fill="#7100b7" fill-rule="evenodd" points="0.0,-0.0 39.6079766039,-91.821610688 -29.016187183,-164.558974845 -122.985449262,-130.356960513 -128.799932153,-30.5261446856 -39.4366681203,14.3537733344 37.1677761916,-49.9249876342 8.48745292053,-145.723938866 -90.8363828537,-157.333230278 -140.836382854,-70.7306898999 -81.1205236834,9.48162937563 16.1839633746,-13.5799576986 33.5487811413,-112.060733 -50.0,-167.011630807 -133.548781141,-112.060733 -116.183963375,-13.5799576986 -18.8794763166,9.48162937563 40.8363828537,-70.7306898999 -9.16361714634,-157.333230278 -108.487452921,-145.723938866 -137.167776192,-49.9249876342 -60.5633318797,14.3537733344 28.7999321526,-30.5261446856 22.9854492615,-130.356960513 -70.983812817,-164.558974845 -139.607976604,-91.821610688 -100.0,-4.26325641456e-13 -6.11066752754e-13,4.50750547998e-13 39.6079766039,-91.821610688 -29.016187183,-164.558974845 -122.985449262,-130.356960513 -128.799932153,-30.5261446856 -39.4366681203,14.3537733344 37.1677761916,-49.9249876342 8.48745292053,-145.723938866 -90.8363828537,-157.333230278 -140.836382854,-70.7306898999 -81.1205236834,9.48162937563 16.1839633746,-13.5799576986 33.5487811413,-112.060733 -50.0,-167.011630807 -133.548781141,-112.060733 -116.183963375,-13.5799576986 -18.8794763166,9.48162937563 40.8363828537,-70.7306898999 -9.16361714634,-157.333230278 -108.487452921,-145.723938866 -137.167776192,-49.9249876342 -60.5633318797,14.3537733344 28.7999321526,-30.5261446856 22.9854492615,-130.356960513 -70.983812817,-164.558974845 -139.607976604,-91.821610688 -100.0,-7.67386154621e-13 -1.26476606965e-12,9.9231733941e-13 39.6079766039,-91.821610688 -29.016187183,-164.558974845 -122.985449262,-130.356960513 -128.799932153,-30.5261446856 -39.4366681203,14.3537733344 37.1677761916,-49.9249876342 8.48745292054,-145.723938866 -90.8363828537,-157.333230278 -140.836382854,-70.7306898999 -81.1205236834,9.48162937563 16.1839633746,-13.5799576986 33.5487811413,-112.060733 -50.0,-167.011630807 -133.548781141,-112.060733 -116.183963375,-13.5799576986 -18.8794763166,9.48162937563 40.8363828537,-70.7306898999 -9.16361714634,-157.333230278 -108.487452921,-145.723938866 -137.167776192,-49.9249876342 -60.5633318797,14.3537733344 28.7999321526,-30.5261446856 22.9854492615,-130.356960513 -70.983812817,-164.558974845 -139.607976604,-91.821610688 -100.0,-1.13686837722e-12 -1.93267624127e-12,1.49436019115e-12 39.6079766039,-91.821610688 -29.016187183,-164.558974845 -122.985449262,-130.356960513 -128.799932153,-30.5261446856 -39.4366681203,14.3537733344 37.1677761916,-49.9249876342 8.48745292054,-145.723938866 -90.8363828537,-157.333230278 -140.836382854,-70.7306898999 -81.1205236834,9.48162937563 16.1839633746,-13.5799576986 33.5487811413,-112.060733 -50.0,-167.011630807 -133.548781141,-112.060733 -116.183963375,-13.5799576986 -18.8794763166,9.48162937563 40.8363828537,-70.7306898999 -9.16361714634,-157.333230278 -108.487452921,-145.723938866" stroke-linejoin="round"/><polyline fill="none" points="0.0,-0.0 39.6079766039,-91.821610688 -29.016187183,-164.558974845 -122.985449262,-130.356960513 -128.799932153,-30.5261446856 -39.4366681203,14.3537733344 37.1677761916,-49.9249876342 8.48745292053,-145.723938866 -90.8363828537,-157.333230278 -140.836382854,-70.7306898999 -81.1205236834,9.48162937563 16.1839633746,-13.5799576986 33.5487811413,-112.060733 -50.0,-167.011630807 -133.548781141,-112.060733 -116.183963375,-13.5799576986 -18.8794763166,9.48162937563 40.8363828537,-70.7306898999 -9.16361714634,-157.333230278 -108.487452921,-145.723938866 -137.167776192,-49.9249876342 -60.5633318797,14.3537733344 28.7999321526,-30.5261446856 22.9854492615,-130.356960513 -70.983812817,-164.558974845 -139.607976604,-91.821610688 -100.0,-4.26325641456e-13 -6.11066752754e-13,4.50750547998e-13 39.6079766039,-91.821610688 -29.016187183,-164.558974845 -122.985449262,-130.356960513 -128.799932153,-30.5261446856 -39.4366681203,14.3537733344 37.1677761916,-49.9249876342 8.48745292053,-145.723938866 -90.8363828537,-157.333230278 -140.836382854,-70.7306898999 -81.1205236834,9.48162937563 16.1839633746,-13.5799576986 33.5487811413,-112.060733 -50.0,-167.011630807 -133.548781141,-112.060733 -116.183963375,-13.5799576986" stroke="#7100b7" stroke-linecap="round" stroke-linejoin="round"/><polyline fill="none" points="-116.183963375,-13.5799576986 -18.8794763166,9.48162937563 40.8363828537,-70.7306898999 -9.16361714634,-157.333230278 -108.487452921,-145.723938866 -137.167776192,-49.9249876342 -60.5633318797,14.3537733344 28.7999321526,-30.5261446856 22.9854492615,-130.356960513 -70.983812817,-164.558974845 -139.607976604,-91.821610688 -100.0,-7.67386154621e-13 -1.26476606965e-12,9.9231733941e-13 39.6079766039,-91.821610688 -29.016187183,-164.558974845 -122.985449262,-130.356960513 -128.799932153,-30.5261446856 -39.4366681203,14.3537733344 37.1677761916,-49.9249876342 8.48745292054,-145.723938866 -90.8363828537,-157.333230278 -140.836382854,-70.7306898999 -81.1205236834,9.48162937563 16.1839633746,-13.5799576986 33.5487811413,-112.060733 -50.0,-167.011630807 -133.548781141,-112.060733 -116.183963375,-13.5799576986 -18.8794763166,9.48162937563 40.8363828537,-70.7306898999 -9.16361714634,-157.333230278 -108.487452921,-145.723938866 -137.167776192,-49.9249876342 -60.5633318797,14.3537733344 28.7999321526,-30.5261446856 22.9854492615,-130.356960513 -70.983812817,-164.558974845 -139.607976604,-91.821610688 -100.0,-1.13686837722e-12 -1.93267624127e-12,1.49436019115e-12 39.6079766039,-91.821610688 -29.016187183,-164.558974845 -122.985449262,-130.356960513" stroke="#7100b7" stroke-linecap="round" stroke-linejoin="round"/><polyline fill="none" points="-122.985449262,-130.356960513 -128.799932153,-30.5261446856 -39.4366681203,14.3537733344 37.1677761916,-49.9249876342 8.48745292054,-145.723938866 -90.8363828537,-157.333230278 -140.836382854,-70.7306898999 -81.1205236834,9.48162937563 16.1839633746,-13.5799576986 33.5487811413,-112.060733 -50.0,-167.011630807 -133.548781141,-112.060733 -116.183963375,-13.5799576986 -18.8794763166,9.48162937563 40.8363828537,-70.7306898999 -9.16361714634,-157.333230278 -108.487452921,-145.723938866" stroke="#7100b7" stroke-linecap="round" stroke-linejoin="round"/><polygon fill="none" fill-rule="evenodd" points="0.0,0.0 0.0,0.0 0.0,0.0" stroke-linejoin="round"/></svg>