<?xml version="1.0" ?><!DOCTYPE svg  PUBLIC '-//W3C//DTD SVG 1.1//EN'  'http://www.w3.org/Graphics/SVG/1.1/DTD/svg11.dtd'><svg height="253.000" viewBox="-227.000 -143.000 254.000 253.000" width="254.000" xmlns="http://www.w3.org/2000/svg"><line fill="none" stroke="none" stroke-linecap="round" stroke-width="2.0" x1="0.0" x2="0.0" y1="0.0" y2="0.0"/><polygon fill="none" fill-rule="evenodd" points="0.0,0.0 0.0,0.0 0.0,0.0" stroke-linejoin="round"/><line fill="none" stroke="none" stroke-linecap="round" stroke-width="2.0" x1="0.0" x2="0.0" y1="0.0" y2="0.0"/><line fill="none" stroke="none" stroke-linecap="round" stroke-width="2.0" x1="0.0" x2="0.0" y1="0.0" y2="0.0"/><line fill="none" stroke="none" stroke-linecap="round" stroke-width="2.0" x1="0.0" x2="0.0" y1="0.0" y2="0.0"/><polygon fill="#000" fill-rule="evenodd" points="0.0,-0.0 -9.0,-5.0 -7.0,-0.0 -9.0,5.0" stroke="#000" stroke-linejoin="round"/><polyline fill="none" points="0.0,-0.0 -191.898594723,-56.3465113683 -23.6478881567,51.7816521228 -154.620034946,-99.368262748 -71.5370323453,82.5581363229 -100.0,-115.406152053 -128.462967655,82.5581363229 -45.3799650543,-99.368262748 -176.352111843,51.7816521228 -8.1014052771,-56.3465113683 -200.0,-4.19220214098e-13 -8.52651282912e-14,4.46753745109e-13 -191.898594723,-56.3465113683 -23.6478881567,51.7816521228 -154.620034946,-99.368262748 -71.5370323453,82.5581363229 -100.0,-115.406152053 -128.462967655,82.5581363229 -45.3799650543,-99.368262748 -176.352111843,51.7816521228 -8.1014052771,-56.3465113683 -200.0,-8.31335000839e-13 -1.42108547152e-13,8.78408457083e-13 -191.898594723,-56.3465113683 -23.6478881567,51.7816521228 -154.620034946,-99.368262748 -71.5370323453,82.5581363229 -100.0,-115.406152053 -128.462967655,82.5581363229 -45.3799650543,-99.368262748 -176.352111843,51.7816521228 -8.1014052771,-56.3465113683" stroke="#006400" stroke-linecap="round" stroke-linejoin="round" stroke-width="4.0"/><polygon fill="#00f" fill-rule="evenodd" points="-207.250482301,-60.8542322777 -205.894961467,-58.3717812168 -201.775257016,-58.2043439631 -199.741975766,-54.4806673717 -202.506159383,-52.1656535646 -202.110131523,-49.9649350605 -198.386454932,-51.9982163108 -194.830215594,-49.9117931098 -190.428778586,-50.7038488297 -188.395497336,-46.9801722383 -185.913046275,-48.3356930719 -188.228060082,-51.0998766896 -185.182143908,-54.3743834704 -185.974199627,-58.7758204785 -182.532255593,-59.8496087552 -183.887776426,-62.3320598162 -187.611453018,-60.2987785658 -190.885959799,-63.3446947404 -195.00566425,-63.5121319942 -197.0389455,-67.2358085855 -198.561903588,-65.5985551952 -197.488115311,-62.1566111606 -201.211791902,-60.1233299103 -204.76803124,-62.2097531113" stroke="#006400" stroke-linejoin="round"/><polygon fill="#00f" fill-rule="evenodd" points="-10.1878316314,60.4319052021 -10.7890570621,57.6681165015 -14.6947120109,56.3468067646 -15.596550157,52.2011237137 -12.292120639,50.7586447501 -12.0520925369,48.535496867 -16.1977755878,49.4373350131 -19.0221489016,46.4335182105 -23.4684446679,45.9534620063 -24.370282814,41.8077789555 -27.1340715146,42.4090043862 -25.691592551,45.7134339042 -29.5366628865,47.9971664006 -30.0167190906,52.4434621669 -33.621761324,52.5040467802 -33.0205358933,55.2678354807 -28.8748528424,54.3659973346 -26.591120346,58.2110676701 -22.6854653972,59.5323774071 -21.7836272511,63.678060458 -19.8610920834,62.5361942098 -19.9216766967,58.9311519763 -15.7759936458,58.0293138302 -12.9516203319,61.0331306329" stroke="#006400" stroke-linejoin="round"/><polygon fill="#00f" fill-rule="evenodd" points="-165.097806689,-111.460255938 -165.29958437,-108.639035321 -161.92439186,-106.270897758 -162.227058381,-102.039066833 -165.804028572,-101.58598378 -166.660666986,-99.5205127373 -162.428836062,-99.2178462161 -160.5651427,-95.5399871848 -156.434200616,-93.8267103552 -156.736867137,-89.5948794303 -153.91564652,-89.3931017495 -154.368729573,-92.9700719405 -150.036009808,-94.0780157275 -148.322732979,-98.208957812 -144.846651628,-97.2514305569 -144.644873947,-100.072651173 -148.876704872,-100.375317695 -149.984648659,-104.70803746 -153.359841169,-107.076175023 -153.057174648,-111.308005948 -155.223534531,-110.754034055 -156.181061786,-107.277952704 -160.412892711,-107.580619226 -162.276586072,-111.258478257" stroke="#006400" stroke-linejoin="round"/><polygon fill="#00f" fill-rule="evenodd" points="-64.8903921373,97.1122482486 -63.9019581726,94.4621542318 -66.47325022,91.2390412634 -64.9905992729,87.2639002384 -61.4308732608,87.8369191901 -60.0270242831,86.0964571687 -64.0021653082,84.6138062216 -64.7541933649,80.5598632272 -68.2351174076,77.7521652718 -66.7524664605,73.7770242467 -69.4025604772,72.788590282 -69.9755794289,76.3483162941 -74.4449374364,76.1907123554 -77.2526353918,79.6716363981 -80.3181444215,77.7735704381 -81.3065783862,80.4236644548 -77.3314373611,81.9063154018 -77.4890412998,86.3756734093 -74.9177492525,89.5987863777 -76.4004001995,93.5739274027 -74.1657211958,93.6527293721 -72.2676552357,90.5872203424 -68.2925142107,92.0698712894 -67.540486154,96.1238142839" stroke="#006400" stroke-linejoin="round"/><polygon fill="#00f" fill-rule="evenodd" points="-102.277037412,-131.243295123 -103.97205062,-128.979022563 -102.412969825,-125.162051634 -104.955489635,-121.765642793 -108.209583638,-123.318341162 -110.046911683,-122.043890044 -106.650502843,-119.501370233 -107.071064931,-115.399769627 -104.522162695,-111.725113536 -107.064682505,-108.328704696 -104.800409945,-106.633691489 -103.247711576,-109.887785491 -99.0037961321,-108.47740196 -95.3291400411,-111.026304197 -92.9225526425,-108.341469548 -91.2275394353,-110.605742108 -94.6239482758,-113.148261919 -93.2135647451,-117.392177363 -94.7726455401,-121.209148292 -92.2301257293,-124.605557133 -94.3520834513,-125.310748898 -97.0369181004,-122.9041615 -100.433326941,-125.44668131 -100.012764852,-129.548281916" stroke="#006400" stroke-linejoin="round"/><polygon fill="#00f" fill-rule="evenodd" points="-130.740005067,98.395279393 -128.475732507,96.7002661858 -128.896294596,92.59866558 -125.499885755,90.0561457691 -122.815051106,92.4627331677 -120.693093384,91.7575414024 -123.235613195,88.3611325619 -121.6765324,84.5441616327 -123.08691593,80.3002461886 -119.69050709,77.7577263778 -121.385520297,75.4934538175 -123.792107696,78.1782884666 -127.466763787,75.6293862297 -131.710679231,77.0397697604 -133.2633776,73.7856757582 -135.52765016,75.4806889654 -132.985130349,78.8770978059 -135.534032586,82.5517538969 -135.113470497,86.6533545027 -138.509879338,89.1958743135 -136.672551292,90.4703254319 -133.41845729,88.917627063 -130.875937479,92.3140359034 -132.435018274,96.1310068327" stroke="#006400" stroke-linejoin="round"/><polygon fill="#00f" fill-rule="evenodd" points="-38.7333248462,-113.922374674 -41.383418863,-112.933940709 -42.1354469196,-108.879997715 -46.1105879447,-107.397346768 -48.0086539047,-110.462855797 -50.2433329085,-110.384053828 -48.7606819614,-106.408912803 -51.3319740088,-103.185799834 -51.1743700701,-98.716441827 -55.1495110951,-97.2337908799 -54.1610771304,-94.5836968632 -51.0955681007,-96.4817628233 -48.2878701453,-93.0008387805 -43.8185121379,-93.1584427192 -43.2454931862,-89.5987167072 -40.5953991695,-90.5871506719 -42.0780501165,-94.5622916969 -38.5971260738,-97.3699896524 -37.8450980171,-101.423932647 -33.8699569921,-102.906583594 -35.2738059698,-104.647045615 -38.8335319818,-104.074026663 -40.3161829289,-108.049167689 -37.7448908815,-111.272280657" stroke="#006400" stroke-linejoin="round"/><polygon fill="#00f" fill-rule="evenodd" points="-186.829883586,63.8736453125 -184.00866297,63.6718676317 -182.144969608,59.9940086003 -177.913138684,59.6913420791 -176.955611428,63.1674234296 -174.789251546,63.7213953232 -175.091918067,59.4895643983 -171.716725557,57.1214268348 -170.60878177,52.7887070695 -166.376950845,52.4860405483 -166.578728526,49.6648199317 -170.054809876,50.6223471868 -171.768086706,46.4914051024 -176.100806471,45.3834613153 -175.647723418,41.8064911243 -178.468944034,42.0082688051 -178.166277513,46.24009973 -182.297219598,47.9533765596 -184.160912959,51.6312355909 -188.392743884,51.9339021122 -187.536105469,53.9993731544 -183.959135278,54.4524562075 -183.656468757,58.6842871324 -187.031661267,61.0524246959" stroke="#006400" stroke-linejoin="round"/><polygon fill="#00f" fill-rule="evenodd" points="5.3586512482,-64.9967644476 2.59486254763,-65.5979898783 -0.229510766244,-62.5941730757 -4.3751938171,-63.4960112218 -4.31460920381,-67.1010534552 -6.23714437155,-68.2429197034 -7.13898251768,-64.0972366526 -11.0446374665,-62.7759269156 -13.3283699629,-58.9308565801 -17.4740530137,-59.8326947262 -18.0752784445,-57.0689060256 -14.4702362111,-57.0083214123 -13.9901800069,-52.5620256461 -10.1451096714,-50.2782931497 -11.587588635,-46.9738636317 -8.82379993444,-46.3726382009 -7.92196178832,-50.5183212518 -3.47566602208,-50.9983774559 -0.651292708211,-54.0021942586 3.49439034265,-53.1003561124 3.25436224057,-55.3235039956 -0.0500672774597,-56.7659829592 0.851770868667,-60.91166601 4.75742581745,-62.232975747" stroke="#006400" stroke-linejoin="round"/><polygon fill="#00f" fill-rule="evenodd" points="-215.351887578,4.50772090946 -212.869436517,5.86324174301 -209.313197179,3.77681854203 -205.589520588,5.81009979235 -206.663308865,9.25204382687 -205.140350777,10.8892972173 -203.107069527,7.16562062589 -198.987365076,6.99818337214 -195.712858295,3.95226719755 -191.989181704,5.98554844787 -190.63366087,3.50309738696 -194.075604905,2.42930911025 -193.283549185,-1.97212789789 -196.329465359,-5.24663467867 -194.014451552,-8.01081829642 -196.496902613,-9.36633912996 -198.530183863,-5.6426625386 -202.931620872,-6.43471825846 -206.487860209,-4.34829505748 -210.2115368,-6.3815763078 -210.60756466,-4.18085780373 -207.843381043,-1.86584399657 -209.876662293,1.8578325948 -213.996366744,2.02526984855" stroke="#006400" stroke-linejoin="round"/><polygon fill="#00f" fill-rule="evenodd" points="16.0,5.16031661846e-13 14.0,-2.0 10.0,-1.0 7.0,-4.0 9.0,-7.0 8.0,-9.0 5.0,-6.0 1.0,-7.0 -3.0,-5.0 -6.0,-8.0 -8.0,-6.0 -5.0,-4.0 -7.0,4.16444656537e-13 -5.0,4.0 -8.0,6.0 -6.0,8.0 -3.0,5.0 1.0,7.0 5.0,6.0 8.0,9.0 9.0,7.0 7.0,4.0 10.0,1.0 14.0,2.0" stroke="#006400" stroke-linejoin="round"/><polygon fill="#00f" fill-rule="evenodd" points="-207.250482301,-60.8542322777 -205.894961467,-58.3717812168 -201.775257016,-58.2043439631 -199.741975766,-54.4806673717 -202.506159383,-52.1656535646 -202.110131523,-49.9649350605 -198.386454932,-51.9982163108 -194.830215594,-49.9117931098 -190.428778586,-50.7038488297 -188.395497336,-46.9801722383 -185.913046275,-48.3356930719 -188.228060082,-51.0998766896 -185.182143908,-54.3743834704 -185.974199627,-58.7758204785 -182.532255593,-59.8496087552 -183.887776426,-62.3320598162 -187.611453018,-60.2987785658 -190.885959799,-63.3446947404 -195.00566425,-63.5121319942 -197.0389455,-67.2358085855 -198.561903588,-65.5985551952 -197.488115311,-62.1566111606 -201.211791902,-60.1233299103 -204.76803124,-62.2097531113" stroke="#006400" stroke-linejoin="round"/><polygon fill="#00f" fill-rule="evenodd" points="-10.1878316314,60.4319052021 -10.7890570621,57.6681165016 -14.6947120109,56.3468067646 -15.596550157,52.2011237137 -12.292120639,50.7586447501 -12.0520925369,48.535496867 -16.1977755878,49.4373350131 -19.0221489016,46.4335182105 -23.4684446679,45.9534620063 -24.370282814,41.8077789555 -27.1340715146,42.4090043862 -25.691592551,45.7134339042 -29.5366628865,47.9971664006 -30.0167190906,52.4434621669 -33.621761324,52.5040467802 -33.0205358933,55.2678354807 -28.8748528424,54.3659973346 -26.591120346,58.2110676701 -22.6854653972,59.5323774071 -21.7836272511,63.678060458 -19.8610920834,62.5361942098 -19.9216766967,58.9311519763 -15.7759936458,58.0293138302 -12.9516203319,61.0331306329" stroke="#006400" stroke-linejoin="round"/><polygon fill="#00f" fill-rule="evenodd" points="-165.097806689,-111.460255938 -165.29958437,-108.639035321 -161.92439186,-106.270897758 -162.227058381,-102.039066833 -165.804028572,-101.58598378 -166.660666986,-99.5205127373 -162.428836062,-99.2178462161 -160.5651427,-95.5399871848 -156.434200616,-93.8267103552 -156.736867137,-89.5948794303 -153.91564652,-89.3931017495 -154.368729573,-92.9700719405 -150.036009808,-94.0780157275 -148.322732979,-98.208957812 -144.846651628,-97.2514305569 -144.644873947,-100.072651173 -148.876704872,-100.375317695 -149.984648659,-104.70803746 -153.359841169,-107.076175023 -153.057174648,-111.308005948 -155.223534531,-110.754034055 -156.181061786,-107.277952704 -160.412892711,-107.580619226 -162.276586072,-111.258478257" stroke="#006400" stroke-linejoin="round"/><polygon fill="#00f" fill-rule="evenodd" points="-64.8903921373,97.1122482486 -63.9019581726,94.4621542318 -66.47325022,91.2390412634 -64.9905992729,87.2639002384 -61.4308732608,87.8369191901 -60.0270242831,86.0964571687 -64.0021653082,84.6138062216 -64.7541933649,80.5598632272 -68.2351174076,77.7521652718 -66.7524664605,73.7770242467 -69.4025604772,72.788590282 -69.9755794289,76.3483162941 -74.4449374364,76.1907123554 -77.2526353918,79.6716363981 -80.3181444215,77.7735704381 -81.3065783862,80.4236644548 -77.3314373611,81.9063154018 -77.4890412998,86.3756734093 -74.9177492525,89.5987863777 -76.4004001995,93.5739274027 -74.1657211958,93.6527293721 -72.2676552357,90.5872203424 -68.2925142107,92.0698712894 -67.540486154,96.1238142839" stroke="#006400" stroke-linejoin="round"/><polygon fill="#00f" fill-rule="evenodd" points="-102.277037412,-131.243295123 -103.97205062,-128.979022563 -102.412969825,-125.162051634 -104.955489635,-121.765642793 -108.209583638,-123.318341162 -110.046911683,-122.043890044 -106.650502843,-119.501370233 -107.071064931,-115.399769627 -104.522162695,-111.725113536 -107.064682505,-108.328704696 -104.800409945,-106.633691489 -103.247711576,-109.887785491 -99.0037961321,-108.47740196 -95.3291400411,-111.026304197 -92.9225526425,-108.341469548 -91.2275394353,-110.605742108 -94.6239482758,-113.148261919 -93.2135647451,-117.392177363 -94.7726455401,-121.209148292 -92.2301257293,-124.605557133 -94.3520834513,-125.310748898 -97.0369181004,-122.9041615 -100.433326941,-125.44668131 -100.012764852,-129.548281916" stroke="#006400" stroke-linejoin="round"/><polygon fill="#00f" fill-rule="evenodd" points="-130.740005067,98.395279393 -128.475732507,96.7002661858 -128.896294596,92.59866558 -125.499885755,90.0561457691 -122.815051106,92.4627331677 -120.693093384,91.7575414024 -123.235613195,88.3611325619 -121.6765324,84.5441616327 -123.08691593,80.3002461886 -119.69050709,77.7577263778 -121.385520297,75.4934538175 -123.792107696,78.1782884666 -127.466763787,75.6293862297 -131.710679231,77.0397697604 -133.2633776,73.7856757582 -135.52765016,75.4806889654 -132.985130349,78.8770978059 -135.534032586,82.5517538969 -135.113470497,86.6533545027 -138.509879338,89.1958743135 -136.672551292,90.4703254319 -133.41845729,88.917627063 -130.875937479,92.3140359034 -132.435018274,96.1310068327" stroke="#006400" stroke-linejoin="round"/><polygon fill="#00f" fill-rule="evenodd" points="-38.7333248462,-113.922374674 -41.383418863,-112.933940709 -42.1354469196,-108.879997715 -46.1105879447,-107.397346768 -48.0086539047,-110.462855797 -50.2433329085,-110.384053828 -48.7606819614,-106.408912803 -51.3319740088,-103.185799834 -51.1743700701,-98.716441827 -55.1495110951,-97.2337908799 -54.1610771304,-94.5836968632 -51.0955681007,-96.4817628233 -48.2878701453,-93.0008387805 -43.8185121379,-93.1584427192 -43.2454931862,-89.5987167072 -40.5953991695,-90.5871506719 -42.0780501165,-94.5622916969 -38.5971260738,-97.3699896524 -37.8450980171,-101.423932647 -33.8699569921,-102.906583594 -35.2738059698,-104.647045615 -38.8335319818,-104.074026663 -40.3161829289,-108.049167689 -37.7448908815,-111.272280657" stroke="#006400" stroke-linejoin="round"/><polygon fill="#00f" fill-rule="evenodd" points="-186.829883586,63.8736453125 -184.00866297,63.6718676317 -182.144969608,59.9940086003 -177.913138684,59.6913420791 -176.955611428,63.1674234296 -174.789251546,63.7213953232 -175.091918067,59.4895643983 -171.716725557,57.1214268348 -170.60878177,52.7887070695 -166.376950845,52.4860405483 -166.578728526,49.6648199317 -170.054809876,50.6223471868 -171.768086706,46.4914051024 -176.100806471,45.3834613153 -175.647723418,41.8064911243 -178.468944034,42.0082688051 -178.166277513,46.24009973 -182.297219598,47.9533765596 -184.160912959,51.6312355909 -188.392743884,51.9339021122 -187.536105469,53.9993731544 -183.959135278,54.4524562075 -183.656468757,58.6842871324 -187.031661267,61.0524246959" stroke="#006400" stroke-linejoin="round"/><polygon fill="#00f" fill-rule="evenodd" points="5.3586512482,-64.9967644476 2.59486254763,-65.5979898783 -0.229510766244,-62.5941730757 -4.3751938171,-63.4960112218 -4.31460920381,-67.1010534552 -6.23714437155,-68.2429197034 -7.13898251768,-64.0972366526 -11.0446374665,-62.7759269156 -13.3283699629,-58.9308565801 -17.4740530137,-59.8326947262 -18.0752784445,-57.0689060256 -14.4702362111,-57.0083214123 -13.9901800069,-52.5620256461 -10.1451096714,-50.2782931497 -11.587588635,-46.9738636317 -8.82379993444,-46.3726382009 -7.92196178832,-50.5183212518 -3.47566602208,-50.9983774559 -0.651292708211,-54.0021942586 3.49439034265,-53.1003561124 3.25436224057,-55.3235039956 -0.0500672774596,-56.7659829591 0.851770868667,-60.91166601 4.75742581745,-62.232975747" stroke="#006400" stroke-linejoin="round"/><polygon fill="#00f" fill-rule="evenodd" points="-215.351887578,4.50772090946 -212.869436517,5.86324174301 -209.313197179,3.77681854203 -205.589520588,5.81009979235 -206.663308865,9.25204382687 -205.140350777,10.8892972173 -203.107069527,7.16562062589 -198.987365076,6.99818337214 -195.712858295,3.95226719755 -191.989181704,5.98554844787 -190.63366087,3.50309738695 -194.075604905,2.42930911025 -193.283549185,-1.97212789789 -196.329465359,-5.24663467867 -194.014451552,-8.01081829642 -196.496902613,-9.36633912997 -198.530183863,-5.6426625386 -202.931620872,-6.43471825846 -206.487860209,-4.34829505748 -210.2115368,-6.3815763078 -210.60756466,-4.18085780373 -207.843381043,-1.86584399657 -209.876662293,1.8578325948 -213.996366744,2.02526984855" stroke="#006400" stroke-linejoin="round"/><polygon fill="#00f" fill-rule="evenodd" points="16.0,1.01518793372e-12 14.0,-2.0 10.0,-0.999999999999 7.0,-4.0 9.0,-7.0 8.0,-9.0 5.0,-6.0 1.0,-7.0 -3.0,-5.0 -6.0,-8.0 -8.0,-6.0 -5.0,-4.0 -7.0,8.18567436056e-13 -5.0,4.0 -8.0,6.0 -6.0,8.0 -3.0,5.0 1.0,7.0 5.0,6.0 8.0,9.0 9.0,7.0 7.0,4.0 10.0,1.0 14.0,2.0" stroke="#006400" stroke-linejoin="round"/><polygon fill="#00f" fill-rule="evenodd" points="-207.250482301,-60.8542322777 -205.894961467,-58.3717812168 -201.775257016,-58.2043439631 -199.741975766,-54.4806673717 -202.506159383,-52.1656535646 -202.110131523,-49.9649350605 -198.386454932,-51.9982163108 -194.830215594,-49.9117931098 -190.428778586,-50.7038488297 -188.395497336,-46.9801722383 -185.913046275,-48.3356930719 -188.228060082,-51.0998766896 -185.182143908,-54.3743834704 -185.974199627,-58.7758204785 -182.532255593,-59.8496087552 -183.887776426,-62.3320598162 -187.611453018,-60.2987785658 -190.885959799,-63.3446947404 -195.00566425,-63.5121319942 -197.0389455,-67.2358085855 -198.561903588,-65.5985551952 -197.488115311,-62.1566111606 -201.211791902,-60.1233299103 -204.76803124,-62.2097531113" stroke="#006400" stroke-linejoin="round"/><polygon fill="#00f" fill-rule="evenodd" points="-10.1878316314,60.4319052021 -10.7890570621,57.6681165016 -14.6947120109,56.3468067646 -15.596550157,52.2011237137 -12.292120639,50.7586447501 -12.0520925369,48.535496867 -16.1977755878,49.4373350131 -19.0221489016,46.4335182105 -23.4684446679,45.9534620063 -24.370282814,41.8077789555 -27.1340715146,42.4090043862 -25.691592551,45.7134339042 -29.5366628865,47.9971664006 -30.0167190906,52.4434621669 -33.621761324,52.5040467802 -33.0205358933,55.2678354808 -28.8748528424,54.3659973346 -26.591120346,58.2110676701 -22.6854653972,59.5323774071 -21.7836272511,63.678060458 -19.8610920834,62.5361942098 -19.9216766967,58.9311519763 -15.7759936458,58.0293138302 -12.9516203319,61.0331306329" stroke="#006400" stroke-linejoin="round"/><polygon fill="#00f" fill-rule="evenodd" points="-165.097806689,-111.460255938 -165.29958437,-108.639035321 -161.92439186,-106.270897758 -162.227058381,-102.039066833 -165.804028572,-101.58598378 -166.660666986,-99.5205127373 -162.428836062,-99.2178462161 -160.5651427,-95.5399871848 -156.434200616,-93.8267103552 -156.736867137,-89.5948794303 -153.91564652,-89.3931017495 -154.368729573,-92.9700719405 -150.036009808,-94.0780157275 -148.322732979,-98.208957812 -144.846651628,-97.2514305569 -144.644873947,-100.072651173 -148.876704872,-100.375317695 -149.984648659,-104.70803746 -153.359841169,-107.076175023 -153.057174648,-111.308005948 -155.223534531,-110.754034055 -156.181061786,-107.277952704 -160.412892711,-107.580619226 -162.276586072,-111.258478257" stroke="#006400" stroke-linejoin="round"/><polygon fill="#00f" fill-rule="evenodd" points="-64.8903921373,97.1122482486 -63.9019581726,94.4621542318 -66.47325022,91.2390412634 -64.9905992729,87.2639002384 -61.4308732608,87.8369191901 -60.0270242831,86.0964571687 -64.0021653082,84.6138062216 -64.7541933649,80.5598632272 -68.2351174076,77.7521652718 -66.7524664605,73.7770242467 -69.4025604772,72.788590282 -69.9755794289,76.3483162941 -74.4449374364,76.1907123554 -77.2526353918,79.6716363981 -80.3181444215,77.7735704381 -81.3065783862,80.4236644548 -77.3314373611,81.9063154018 -77.4890412998,86.3756734093 -74.9177492525,89.5987863777 -76.4004001995,93.5739274027 -74.1657211958,93.6527293721 -72.2676552357,90.5872203424 -68.2925142107,92.0698712894 -67.540486154,96.1238142839" stroke="#006400" stroke-linejoin="round"/><polygon fill="#00f" fill-rule="evenodd" points="-102.277037412,-131.243295123 -103.97205062,-128.979022563 -102.412969825,-125.162051634 -104.955489635,-121.765642793 -108.209583638,-123.318341162 -110.046911683,-122.043890044 -106.650502843,-119.501370233 -107.071064931,-115.399769627 -104.522162695,-111.725113536 -107.064682505,-108.328704696 -104.800409945,-106.633691489 -103.247711576,-109.887785491 -99.0037961321,-108.47740196 -95.3291400411,-111.026304197 -92.9225526425,-108.341469548 -91.2275394353,-110.605742108 -94.6239482758,-113.148261919 -93.2135647451,-117.392177363 -94.7726455401,-121.209148292 -92.2301257293,-124.605557133 -94.3520834513,-125.310748898 -97.0369181004,-122.9041615 -100.433326941,-125.44668131 -100.012764852,-129.548281916" stroke="#006400" stroke-linejoin="round"/><polygon fill="#00f" fill-rule="evenodd" points="-130.740005067,98.395279393 -128.475732507,96.7002661858 -128.896294596,92.59866558 -125.499885755,90.0561457691 -122.815051106,92.4627331677 -120.693093384,91.7575414024 -123.235613195,88.3611325619 -121.6765324,84.5441616327 -123.08691593,80.3002461886 -119.69050709,77.7577263778 -121.385520297,75.4934538175 -123.792107696,78.1782884666 -127.466763787,75.6293862297 -131.710679231,77.0397697604 -133.2633776,73.7856757582 -135.52765016,75.4806889654 -132.985130349,78.8770978059 -135.534032586,82.5517538969 -135.113470497,86.6533545027 -138.509879338,89.1958743135 -136.672551292,90.4703254319 -133.41845729,88.917627063 -130.875937479,92.3140359034 -132.435018274,96.1310068327" stroke="#006400" stroke-linejoin="round"/><polygon fill="#00f" fill-rule="evenodd" points="-38.7333248462,-113.922374674 -41.383418863,-112.933940709 -42.1354469196,-108.879997715 -46.1105879447,-107.397346768 -48.0086539047,-110.462855797 -50.2433329085,-110.384053828 -48.7606819614,-106.408912803 -51.3319740088,-103.185799834 -51.1743700701,-98.716441827 -55.1495110951,-97.2337908799 -54.1610771304,-94.5836968632 -51.0955681007,-96.4817628233 -48.2878701453,-93.0008387805 -43.8185121379,-93.1584427192 -43.2454931862,-89.5987167072 -40.5953991695,-90.5871506719 -42.0780501165,-94.5622916969 -38.5971260738,-97.3699896524 -37.8450980171,-101.423932647 -33.8699569921,-102.906583594 -35.2738059698,-104.647045615 -38.8335319818,-104.074026663 -40.3161829289,-108.049167689 -37.7448908815,-111.272280657" stroke="#006400" stroke-linejoin="round"/><polygon fill="#00f" fill-rule="evenodd" points="-186.829883586,63.8736453125 -184.00866297,63.6718676317 -182.144969608,59.9940086003 -177.913138684,59.6913420791 -176.955611428,63.1674234296 -174.789251546,63.7213953232 -175.091918067,59.4895643983 -171.716725557,57.1214268348 -170.60878177,52.7887070695 -166.376950845,52.4860405483 -166.578728526,49.6648199317 -170.054809876,50.6223471868 -171.768086706,46.4914051024 -176.100806471,45.3834613153 -175.647723418,41.8064911243 -178.468944034,42.0082688051 -178.166277513,46.24009973 -182.297219598,47.9533765596 -184.160912959,51.6312355909 -188.392743884,51.9339021122 -187.536105469,53.9993731544 -183.959135278,54.4524562075 -183.656468757,58.6842871324 -187.031661267,61.0524246959" stroke="#006400" stroke-linejoin="round"/><line fill="none" stroke="none" stroke-linecap="round" stroke-width="4.0" x1="0.0" x2="0.0" y1="0.0" y2="0.0"/><polygon fill="#00f" fill-rule="evenodd" points="5.3586512482,-64.9967644476 2.59486254763,-65.5979898783 -0.229510766244,-62.5941730757 -4.3751938171,-63.4960112218 -4.31460920381,-67.1010534552 -6.23714437155,-68.2429197034 -7.13898251768,-64.0972366525 -11.0446374665,-62.7759269156 -13.3283699629,-58.9308565801 -17.4740530137,-59.8326947262 -18.0752784445,-57.0689060256 -14.4702362111,-57.0083214123 -13.9901800069,-52.5620256461 -10.1451096714,-50.2782931497 -11.587588635,-46.9738636317 -8.82379993444,-46.3726382009 -7.92196178832,-50.5183212518 -3.47566602208,-50.9983774559 -0.651292708211,-54.0021942586 3.49439034265,-53.1003561124 3.25436224057,-55.3235039956 -0.0500672774594,-56.7659829591 0.851770868667,-60.91166601 4.75742581745,-62.232975747" stroke="#006400" stroke-linejoin="round"/><polygon fill="#00f" fill-rule="evenodd" points="5.3586512482,-64.9967644476 2.59486254763,-65.5979898783 -0.229510766244,-62.5941730757 -4.3751938171,-63.4960112218 -4.31460920381,-67.1010534552 -6.23714437155,-68.2429197034 -7.13898251768,-64.0972366525 -11.0446374665,-62.7759269156 -13.3283699629,-58.9308565801 -17.4740530137,-59.8326947262 -18.0752784445,-57.0689060256 -14.4702362111,-57.0083214123 -13.9901800069,-52.5620256461 -10.1451096714,-50.2782931497 -11.587588635,-46.9738636317 -8.82379993444,-46.3726382009 -7.92196178832,-50.5183212518 -3.47566602208,-50.9983774559 -0.651292708211,-54.0021942586 3.49439034265,-53.1003561124 3.25436224057,-55.3235039956 -0.0500672774594,-56.7659829591 0.851770868667,-60.91166601 4.75742581745,-62.232975747" stroke="#006400" stroke-linejoin="round"/></svg>