<?xml version="1.0" ?><!DOCTYPE svg  PUBLIC '-//W3C//DTD SVG 1.1//EN'  'http://www.w3.org/Graphics/SVG/1.1/DTD/svg11.dtd'><svg height="260.000" viewBox="-180.000 -229.000 360.000 260.000" width="360.000" xmlns="http://www.w3.org/2000/svg"><line fill="none" stroke="none" stroke-linecap="round" stroke-width="2.0" x1="0.0" x2="0.0" y1="0.0" y2="0.0"/><polygon fill="none" fill-rule="evenodd" points="0.0,0.0 0.0,0.0 0.0,0.0" stroke-linejoin="round"/><line fill="none" stroke="none" stroke-linecap="round" stroke-width="2.0" x1="0.0" x2="0.0" y1="0.0" y2="0.0"/><line fill="none" stroke="#8b0000" stroke-linecap="round" stroke-width="9.0" x1="0.0" x2="59.1572212414" y1="0.0" y2="-80.6252018602"/><line fill="none" stroke="#006400" stroke-linecap="round" stroke-width="9.0" x1="59.1572212414" x2="29.1487577413" y1="-80.6252018602" y2="-176.016459942"/><line fill="none" stroke="#8b0000" stroke-linecap="round" stroke-width="9.0" x1="29.1487577413" x2="-65.5128097877" y1="-176.016459942" y2="-208.252893258"/><line fill="none" stroke="#006400" stroke-linecap="round" stroke-width="9.0" x1="-65.5128097877" x2="-147.502652155" y1="-208.252893258" y2="-151.001991531"/><line fill="none" stroke="#8b0000" stroke-linecap="round" stroke-width="9.0" x1="-147.502652155" x2="-149.846909515" y1="-151.001991531" y2="-51.0294730196"/><line fill="none" stroke="#006400" stroke-linecap="round" stroke-width="9.0" x1="-149.846909515" x2="-70.6306621743" y1="-51.0294730196" y2="10.0015531654"/><line fill="none" stroke="#8b0000" stroke-linecap="round" stroke-width="9.0" x1="-70.6306621743" x2="25.4378565834" y1="10.0015531654" y2="-17.7624469734"/><line fill="none" stroke="#006400" stroke-linecap="round" stroke-width="9.0" x1="25.4378565834" x2="59.8845416118" y1="-17.7624469734" y2="-111.642295133"/><line fill="none" stroke="#8b0000" stroke-linecap="round" stroke-width="9.0" x1="59.8845416118" x2="4.57142619932" y1="-111.642295133" y2="-194.951713949"/><line fill="none" stroke="#006400" stroke-linecap="round" stroke-width="9.0" x1="4.57142619932" x2="-95.3186629493" y1="-194.951713949" y2="-199.638940196"/><line fill="none" stroke="#8b0000" stroke-linecap="round" stroke-width="9.0" x1="-95.3186629493" x2="-158.189949608" y1="-199.638940196" y2="-121.875186982"/><line fill="none" stroke="#006400" stroke-linecap="round" stroke-width="9.0" x1="-158.189949608" x2="-132.685672752" y1="-121.875186982" y2="-25.1822096674"/><line fill="none" stroke="#8b0000" stroke-linecap="round" stroke-width="9.0" x1="-132.685672752" x2="-39.6391431215" y1="-25.1822096674" y2="11.4557941494"/><line fill="none" stroke="#006400" stroke-linecap="round" stroke-width="9.0" x1="-39.6391431215" x2="44.9440628044" y1="11.4557941494" y2="-41.889133213"/><line fill="none" stroke="#8b0000" stroke-linecap="round" stroke-width="9.0" x1="44.9440628044" x2="51.971681699" y1="-41.889133213" y2="-141.641890431"/><line fill="none" stroke="#006400" stroke-linecap="round" stroke-width="9.0" x1="51.971681699" x2="-24.2968361121" y1="-141.641890431" y2="-206.318881633"/><line fill="none" stroke="#8b0000" stroke-linecap="round" stroke-width="9.0" x1="-24.2968361121" x2="-121.561126645" y1="-206.318881633" y2="-183.08834597"/><line fill="none" stroke="#006400" stroke-linecap="round" stroke-width="9.0" x1="-121.561126645" x2="-160.370311912" y1="-183.08834597" y2="-90.9262760119"/><line fill="none" stroke="#8b0000" stroke-linecap="round" stroke-width="9.0" x1="-160.370311912" x2="-109.02289256" y1="-90.9262760119" y2="-5.11577242435"/><line fill="none" stroke="#006400" stroke-linecap="round" stroke-width="9.0" x1="-109.02289256" x2="-9.4622943581" y1="-5.11577242435" y2="4.24837652909"/><line fill="none" stroke="#8b0000" stroke-linecap="round" stroke-width="9.0" x1="-9.4622943581" x2="56.9848529858" y1="4.24837652909" y2="-70.4829864309"/><line fill="none" stroke="#006400" stroke-linecap="round" stroke-width="9.0" x1="56.9848529858" x2="36.0408267092" y1="-70.4829864309" y2="-168.26513083"/><line fill="none" stroke="#8b0000" stroke-linecap="round" stroke-width="9.0" x1="36.0408267092" x2="-55.1861285573" y1="-168.26513083" y2="-209.224166864"/><line fill="none" stroke="#006400" stroke-linecap="round" stroke-width="9.0" x1="-55.1861285573" x2="-142.176765798" y1="-209.224166864" y2="-159.902477594"/><line fill="none" stroke="#8b0000" stroke-linecap="round" stroke-width="9.0" x1="-142.176765798" x2="-153.872297995" y1="-159.902477594" y2="-60.5887598778"/><line fill="none" stroke="#006400" stroke-linecap="round" stroke-width="9.0" x1="-153.872297995" x2="-80.719164469" y1="-60.5887598778" y2="7.59202227723"/><line fill="none" stroke="#8b0000" stroke-linecap="round" stroke-width="9.0" x1="-80.719164469" x2="17.5270898185" y1="7.59202227723" y2="-11.0539831519"/><line fill="none" stroke="#006400" stroke-linecap="round" stroke-width="9.0" x1="17.5270898185" x2="60.6134643126" y1="-11.0539831519" y2="-101.295682676"/><line fill="none" stroke="#8b0000" stroke-linecap="round" stroke-width="9.0" x1="60.6134643126" x2="13.3446137938" y1="-101.295682676" y2="-189.418640925"/><line fill="none" stroke="#006400" stroke-linecap="round" stroke-width="9.0" x1="13.3446137938" x2="-85.6676376597" y1="-189.418640925" y2="-203.439128153"/><line fill="none" stroke="none" stroke-linecap="round" stroke-width="9.0" x1="0.0" x2="0.0" y1="0.0" y2="0.0"/><polygon fill="#006400" fill-rule="evenodd" points="-85.6676376597,-203.439128153 -77.4575593903,-197.22667173 -78.736780058,-202.457694047 -76.0555106675,-207.127896876" stroke="#006400" stroke-linejoin="round"/><line fill="none" stroke="#8b0000" stroke-linecap="round" stroke-width="9.0" x1="0.0" x2="100.0" y1="0.0" y2="0.0"/><line fill="none" stroke="#006400" stroke-linecap="round" stroke-width="9.0" x1="100.0" x2="159.157221241" y1="0.0" y2="-80.6252018602"/><line fill="none" stroke="#ffa500" stroke-linecap="round" stroke-width="9.0" x1="159.157221241" x2="129.148757741" y1="-80.6252018602" y2="-176.016459942"/><line fill="none" stroke="#8b0000" stroke-linecap="round" stroke-width="9.0" x1="129.148757741" x2="34.4871902123" y1="-176.016459942" y2="-208.252893258"/><line fill="none" stroke="#006400" stroke-linecap="round" stroke-width="9.0" x1="34.4871902123" x2="-47.5026521551" y1="-208.252893258" y2="-151.001991531"/><line fill="none" stroke="#ffa500" stroke-linecap="round" stroke-width="9.0" x1="-47.5026521551" x2="-49.8469095154" y1="-151.001991531" y2="-51.0294730196"/><line fill="none" stroke="#8b0000" stroke-linecap="round" stroke-width="9.0" x1="-49.8469095154" x2="29.3693378257" y1="-51.0294730196" y2="10.0015531654"/><line fill="none" stroke="#006400" stroke-linecap="round" stroke-width="9.0" x1="29.3693378257" x2="125.437856583" y1="10.0015531654" y2="-17.7624469734"/><line fill="none" stroke="#ffa500" stroke-linecap="round" stroke-width="9.0" x1="125.437856583" x2="159.884541612" y1="-17.7624469734" y2="-111.642295133"/><line fill="none" stroke="#8b0000" stroke-linecap="round" stroke-width="9.0" x1="159.884541612" x2="104.571426199" y1="-111.642295133" y2="-194.951713949"/><line fill="none" stroke="#006400" stroke-linecap="round" stroke-width="9.0" x1="104.571426199" x2="4.68133705075" y1="-194.951713949" y2="-199.638940196"/><line fill="none" stroke="#ffa500" stroke-linecap="round" stroke-width="9.0" x1="4.68133705075" x2="-58.1899496083" y1="-199.638940196" y2="-121.875186982"/><line fill="none" stroke="#8b0000" stroke-linecap="round" stroke-width="9.0" x1="-58.1899496083" x2="-32.6856727522" y1="-121.875186982" y2="-25.1822096674"/><line fill="none" stroke="#006400" stroke-linecap="round" stroke-width="9.0" x1="-32.6856727522" x2="60.3608568785" y1="-25.1822096674" y2="11.4557941494"/><line fill="none" stroke="#ffa500" stroke-linecap="round" stroke-width="9.0" x1="60.3608568785" x2="144.944062804" y1="11.4557941494" y2="-41.889133213"/><line fill="none" stroke="#8b0000" stroke-linecap="round" stroke-width="9.0" x1="144.944062804" x2="151.971681699" y1="-41.889133213" y2="-141.641890431"/><line fill="none" stroke="#006400" stroke-linecap="round" stroke-width="9.0" x1="151.971681699" x2="75.7031638879" y1="-141.641890431" y2="-206.318881633"/><line fill="none" stroke="#ffa500" stroke-linecap="round" stroke-width="9.0" x1="75.7031638879" x2="-21.5611266445" y1="-206.318881633" y2="-183.08834597"/><line fill="none" stroke="#8b0000" stroke-linecap="round" stroke-width="9.0" x1="-21.5611266445" x2="-60.3703119118" y1="-183.08834597" y2="-90.9262760119"/><line fill="none" stroke="#006400" stroke-linecap="round" stroke-width="9.0" x1="-60.3703119118" x2="-9.02289256029" y1="-90.9262760119" y2="-5.11577242435"/><line fill="none" stroke="#ffa500" stroke-linecap="round" stroke-width="9.0" x1="-9.02289256029" x2="90.5377056419" y1="-5.11577242435" y2="4.24837652909"/><line fill="none" stroke="#8b0000" stroke-linecap="round" stroke-width="9.0" x1="90.5377056419" x2="156.984852986" y1="4.24837652909" y2="-70.4829864309"/><line fill="none" stroke="#006400" stroke-linecap="round" stroke-width="9.0" x1="156.984852986" x2="136.040826709" y1="-70.4829864309" y2="-168.26513083"/><line fill="none" stroke="#ffa500" stroke-linecap="round" stroke-width="9.0" x1="136.040826709" x2="44.8138714427" y1="-168.26513083" y2="-209.224166864"/><line fill="none" stroke="none" stroke-linecap="round" stroke-width="9.0" x1="0.0" x2="0.0" y1="0.0" y2="0.0"/><polygon fill="#ffa500" fill-rule="evenodd" points="44.8138714427,-209.224166864 55.1091132578,-209.313587036 50.9032160495,-212.676685113 50.1769443309,-218.01265076" stroke="#ffa500" stroke-linejoin="round"/></svg>